<svg width="68" height="108" viewBox="0 0 68 108" fill="none" xmlns="http://www.w3.org/2000/svg">
<path d="M33.9436 0.249994C44.1436 0.249994 52.2936 3.04999 58.3936 8.64999C64.5936 14.25 67.6936 21.9 67.6936 31.6C67.6936 41.7 64.4936 49.3 58.0936 54.4C51.6936 59.5 43.1936 62.05 32.5936 62.05L31.9936 73.9H17.1436L16.3936 50.35H21.3436C31.0436 50.35 38.4436 49.05 43.5436 46.45C48.7436 43.85 51.3436 38.9 51.3436 31.6C51.3436 26.3 49.7936 22.15 46.6936 19.15C43.6936 16.15 39.4936 14.65 34.0936 14.65C28.6936 14.65 24.4436 16.1 21.3436 19C18.2436 21.9 16.6936 25.95 16.6936 31.15H0.643555C0.643555 25.15 1.99356 19.8 4.69355 15.1C7.39356 10.4 11.2436 6.74999 16.2436 4.15C21.3436 1.54999 27.2436 0.249994 33.9436 0.249994ZM24.3436 107.05C21.2436 107.05 18.6436 106 16.5436 103.9C14.4436 101.8 13.3936 99.2 13.3936 96.1C13.3936 93 14.4436 90.4 16.5436 88.3C18.6436 86.2 21.2436 85.15 24.3436 85.15C27.3436 85.15 29.8936 86.2 31.9936 88.3C34.0936 90.4 35.1436 93 35.1436 96.1C35.1436 99.2 34.0936 101.8 31.9936 103.9C29.8936 106 27.3436 107.05 24.3436 107.05Z" fill="#EB6F38"/>
</svg>
